<svg xmlns="http://www.w3.org/2000/svg" width="1400" height="760" viewBox="0 0 1400 760" role="img" aria-labelledby="title desc">
<title id="title">Complete PicoRV32 core LUT4 area</title>
<desc id="desc">Lower is better · Complete routed core with the selected PCPI hardware</desc>
<rect width="1400" height="760" fill="white"/>
<style>text{font-family:system-ui,-apple-system,BlinkMacSystemFont,"Segoe UI",sans-serif;fill:#172033}.title{font-size:28px;font-weight:700}.subtitle{font-size:15px;fill:#5c6678}.variant{font-size:15px;font-weight:650}.group{font-size:17px;font-weight:650}.value{font-family:ui-monospace,"SFMono-Regular",Consolas,monospace;font-size:12px;font-weight:650}.change{font-size:12px;fill:#667085}.pending{font-size:12px;font-weight:650;fill:#8992a3;letter-spacing:.04em}.note{font-size:13px;fill:#667085}</style>
<text x="56" y="48" class="title">Complete PicoRV32 core LUT4 area</text>
<text x="56" y="78" class="subtitle">Lower is better · Complete routed core with the selected PCPI hardware</text>
<path d="M70 535.5H1330" stroke="#98a2b3" stroke-width="1"/>
<rect x="84.00" y="190.98" width="132" height="344.02" rx="4" fill="#687386"/>
<text x="150" y="179.98" text-anchor="middle" class="value">3,788</text>
<text x="150" y="570" text-anchor="middle" class="variant">Baseline</text>
<text x="150" y="593" text-anchor="middle" class="change">baseline</text>
<rect x="359.00" y="190.71" width="132" height="344.29" rx="4" fill="#316bd6"/>
<text x="425" y="179.71" text-anchor="middle" class="value">3,791</text>
<text x="425" y="570" text-anchor="middle" class="variant">FQMUL</text>
<text x="425" y="593" text-anchor="middle" class="change">+0.08% vs baseline</text>
<rect x="634.00" y="182.71" width="132" height="352.29" rx="4" fill="#c64d4d"/>
<text x="700" y="171.71" text-anchor="middle" class="value">3,879</text>
<text x="700" y="570" text-anchor="middle" class="variant">RED32</text>
<text x="700" y="593" text-anchor="middle" class="change">+2.40% vs baseline</text>
<rect x="909.00" y="170.00" width="132" height="365.00" rx="4" fill="#27866f"/>
<text x="975" y="159.00" text-anchor="middle" class="value">4,019</text>
<text x="975" y="570" text-anchor="middle" class="variant">FSRI</text>
<text x="975" y="593" text-anchor="middle" class="change">+6.10% vs baseline</text>
<rect x="1184.00" y="184.89" width="132" height="350.11" rx="4" fill="#8356b6"/>
<text x="1250" y="173.89" text-anchor="middle" class="value">3,855</text>
<text x="1250" y="570" text-anchor="middle" class="variant">FDOT2X</text>
<text x="1250" y="593" text-anchor="middle" class="change">+1.77% vs baseline</text>
</svg>
