<svg xmlns="http://www.w3.org/2000/svg" width="760" height="340" viewBox="0 0 760 340">
<rect width="100%" height="100%" fill="white"/>
<style>text{font-family:system-ui,sans-serif;fill:#111827}.t{font-size:19px;font-weight:600}.a{font-size:12px}.v{font-size:12px;font-weight:600}.bar{fill:#374151}.grid{stroke:#d1d5db}.budget{stroke:#b91c1c;stroke-width:1.5;stroke-dasharray:6 5}.bl{fill:#b91c1c;font-size:11px}</style>
<text x="380.0" y="27" text-anchor="middle" class="t">Geometric mean speedup vs tuned software</text>
<line x1="70" y1="274.0" x2="735" y2="274.0" class="grid"/><text x="62" y="278.0" text-anchor="end" class="a">0</text>
<line x1="70" y1="228.8" x2="735" y2="228.8" class="grid"/><text x="62" y="232.8" text-anchor="end" class="a">11</text>
<line x1="70" y1="183.6" x2="735" y2="183.6" class="grid"/><text x="62" y="187.6" text-anchor="end" class="a">22</text>
<line x1="70" y1="138.4" x2="735" y2="138.4" class="grid"/><text x="62" y="142.4" text-anchor="end" class="a">33</text>
<line x1="70" y1="93.2" x2="735" y2="93.2" class="grid"/><text x="62" y="97.2" text-anchor="end" class="a">44</text>
<line x1="70" y1="48.0" x2="735" y2="48.0" class="grid"/><text x="62" y="52.0" text-anchor="end" class="a">55</text>
<rect x="92.0" y="247.3" width="138.8" height="26.7" rx="3" class="bar"/><text x="161.4" y="241.3" text-anchor="middle" class="v">6.49</text><text x="161.4" y="297" text-anchor="middle" class="a">FQMUL</text>
<rect x="252.8" y="251.8" width="138.8" height="22.2" rx="3" class="bar"/><text x="322.1" y="245.8" text-anchor="middle" class="v">5.40</text><text x="322.1" y="297" text-anchor="middle" class="a">RED32</text>
<rect x="413.5" y="78.4" width="138.8" height="195.6" rx="3" class="bar"/><text x="482.9" y="72.4" text-anchor="middle" class="v">47.59</text><text x="482.9" y="297" text-anchor="middle" class="a">FSRI comb</text>
<rect x="574.2" y="103.3" width="138.8" height="170.7" rx="3" class="bar"/><text x="643.6" y="97.3" text-anchor="middle" class="v">41.54</text><text x="643.6" y="297" text-anchor="middle" class="a">FSRI reuse</text>
<text x="18" y="161.0" transform="rotate(-90 18 161.0)" text-anchor="middle" class="a">speedup (%)</text>
</svg>
